<?xml version="1.0" encoding="utf-8"?>
<!-- Generator: Adobe Illustrator 26.2.1, SVG Export Plug-In . SVG Version: 6.00 Build 0)  -->
<svg version="1.1" id="Layer_1" xmlns="http://www.w3.org/2000/svg" xmlns:xlink="http://www.w3.org/1999/xlink" x="0px" y="0px"
	 width="101.9px" height="36.8px" viewBox="0 0 101.9 36.8" style="enable-background:new 0 0 101.9 36.8;" xml:space="preserve">
<style type="text/css">
	.st0{fill:#FFFFFF;}
	.st1{enable-background:new    ;}
</style>
<g id="Analize_Button" transform="translate(-567.378 -336.115)">
	<path class="st0" d="M650.8,372.9h-65c-10.2,0-18.4-8.3-18.4-18.4s8.3-18.4,18.4-18.4h65c10.2,0,18.4,8.3,18.4,18.4
		S661,372.9,650.8,372.9z M585.8,337.1c-9.6,0-17.4,7.8-17.4,17.4s7.8,17.4,17.4,17.4h65c9.6,0,17.4-7.8,17.4-17.4
		s-7.8-17.4-17.4-17.4H585.8z"/>
	<g class="st1">
		<path class="st0" d="M602.9,351h1.1l2.6,7.1h-1.1l-0.7-2.1H602l-0.8,2.1h-1L602.9,351z M604.5,355.2l-1.1-3.1l-1.1,3.1H604.5z"/>
		<path class="st0" d="M609.5,351h1.1l3.5,5.7V351h0.9v7.1H614l-3.6-5.7v5.7h-0.9V351z"/>
		<path class="st0" d="M620.7,351h1.1l2.6,7.1h-1.1l-0.7-2.1h-2.8l-0.8,2.1h-1L620.7,351z M622.3,355.2l-1.1-3.1l-1.1,3.1H622.3z"/>
		<path class="st0" d="M627.2,351h1v6.3h3.6v0.8h-4.5V351z"/>
		<path class="st0" d="M633.4,351h1.1l2,3.4l2-3.4h1.1l-2.7,4.2v2.9h-1v-2.9L633.4,351z"/>
		<path class="st0" d="M642.1,357.3l4.4-5.5h-4.1V351h5.3v0.8l-4.4,5.4h4.4v0.8h-5.6V357.3z"/>
		<path class="st0" d="M650.7,351h5.2v0.9h-4.2v2.2h3.9v0.8h-3.9v2.4h4.3v0.8h-5.2V351z"/>
	</g>
	<g id="Group_38">
		<path class="st0" d="M586.6,361.5c-0.3,0-0.5-0.2-0.5-0.5v-13.3c0-0.3,0.2-0.5,0.5-0.5s0.5,0.2,0.5,0.5V361
			C587.1,361.3,586.9,361.5,586.6,361.5z"/>
		<path class="st0" d="M593.2,354.8h-13.3c-0.3,0-0.5-0.2-0.5-0.5s0.2-0.5,0.5-0.5h13.3c0.3,0,0.5,0.2,0.5,0.5
			S593.5,354.8,593.2,354.8z"/>
	</g>
</g>
</svg>
