<?xml version="1.0" encoding="UTF-8"?>
<svg xmlns="http://www.w3.org/2000/svg" width="171.839" height="78.013" viewBox="0 0 171.839 78.013">
  <g id="a" data-name="Layer 1">
    <g>
      <g>
        <path d="M75.986,63.426v.123c-.318,0-.621,.116-.621,.643v3.428c0,.491,.231,.765,.542,.765v.123h-2.1v-.123c.303,0,.512-.274,.512-.765v-3.428c0-.448-.202-.643-.512-.643v-.123h2.18Zm3.356,4.958v.123h-1.141c-.765,0-.938-.209-1.696-1.306-.419-.592-.729-1.003-.729-1.003l.996-1.205s1.241-1.415-.043-1.444v-.123h2.382v.123c-.484,0-.989,.015-2.548,2.014,1.689,2.259,1.761,2.353,1.761,2.353,.354,.469,.823,.469,1.018,.469Z" fill="#fff"/>
        <path d="M86.812,63.426v.123c-1.09-.007-1.075,1.71-1.075,1.71v3.248h-.383l-3.154-3.962v2.122s-.007,1.718,.989,1.718v.123h-2.194v-.123c1.09,0,1.083-1.718,1.083-1.718v-2.252l-.281-.354c-.462-.578-.671-.498-.859-.513v-.123h1.768l2.909,3.587v-1.754s.007-1.717-.989-1.71v-.123h2.187Z" fill="#fff"/>
        <path d="M93.647,66.003c0,1.436-.902,2.569-2.49,2.569s-2.49-1.133-2.49-2.569,.902-2.642,2.49-2.642,2.49,1.212,2.49,2.642Zm-1.249,0c0-1.978-.39-2.519-1.241-2.519-.859,0-1.256,.542-1.256,2.519s.397,2.447,1.256,2.447c.852,0,1.241-.462,1.241-2.447Z" fill="#fff"/>
        <path d="M103.001,63.426v.123c-.332,0-.809,.173-1.473,1.725l-1.249,3.233h-.123l-1.292-3.118-1.155,3.118h-.123l-1.812-4.374c-.231-.585-.477-.585-.664-.585v-.123h2.302v.123c-.635,0-.325,.837-.325,.837l1.039,2.634,.671-1.812-.411-1.075c-.224-.585-.477-.585-.664-.585v-.123h2.302v.123c-.649,0-.325,.837-.325,.837l1.025,2.663,.686-1.812s.686-1.689-.542-1.689v-.123h2.129Z" fill="#fff"/>
        <path d="M112.833,63.426v.123c-.188,0-.895,.015-1.703,1.595l-.477,1.003v1.486c0,.491,.311,.751,.614,.751v.123h-2.273v-.123c.303,0,.613-.26,.613-.751v-1.119c-1.061-1.876-1.407-2.403-1.407-2.403-.318-.548-.592-.57-.772-.57v-.116h2.302v.116c-.151,0-.657-.007-.166,.823l1.018,1.66,.484-1.003s.642-1.473-.397-1.473v-.123h2.165Z" fill="#fff"/>
        <path d="M119.106,66.003c0,1.436-.902,2.569-2.49,2.569s-2.49-1.133-2.49-2.569,.902-2.642,2.49-2.642,2.49,1.212,2.49,2.642Zm-1.249,0c0-1.978-.39-2.519-1.241-2.519-.859,0-1.256,.542-1.256,2.519s.397,2.447,1.256,2.447c.852,0,1.241-.462,1.241-2.447Z" fill="#fff"/>
        <path d="M126.178,63.549c-1.09-.007-1.075,1.083-1.075,1.083v2.144c0,1.544-1.148,1.797-1.783,1.797-.982,0-1.79-.664-1.79-1.84v-2.548c0-.44-.26-.635-.578-.635v-.123h2.295v.123c-.311,0-.671,.116-.671,.635v2.598c0,.852,.527,1.357,1.212,1.357,.549,0,1.191-.455,1.191-1.364v-2.144s.015-1.089-.981-1.083v-.123h2.18v.123Z" fill="#fff"/>
        <path d="M132.934,68.384v.123h-.664c-1.285-.007-1.097-.007-1.602-1.573-.238-.744-.902-.744-.902-.744h-.339v1.443c0,.491,.231,.751,.534,.751v.123h-2.1v-.123c.311,0,.52-.26,.52-.751v-3.442c0-.448-.202-.643-.52-.643v-.123h1.79c1.436,0,2.447,.173,2.447,1.378,0,.881-.549,1.206-1.408,1.307,.469-.051,1.047,.267,1.4,1.566,.145,.549,.657,.693,.844,.708Zm-2.014-3.58c0-1.256-.57-1.256-1.27-1.256h-.224v2.519h.224c.7,0,1.27-.007,1.27-1.263Z" fill="#fff"/>
        <path d="M143.714,63.426v.123c-1.09-.007-1.075,1.71-1.075,1.71v3.248h-.383l-3.154-3.962v2.122s-.007,1.718,.989,1.718v.123h-2.194v-.123c1.09,0,1.083-1.718,1.083-1.718v-2.252l-.281-.354c-.462-.578-.671-.498-.859-.513v-.123h1.768l2.909,3.587v-1.754s.007-1.717-.989-1.71v-.123h2.187Z" fill="#fff"/>
        <path d="M150.548,66.003c0,1.436-.902,2.569-2.49,2.569s-2.49-1.133-2.49-2.569,.902-2.642,2.49-2.642,2.49,1.212,2.49,2.642Zm-1.249,0c0-1.978-.39-2.519-1.241-2.519-.859,0-1.256,.542-1.256,2.519s.397,2.447,1.256,2.447c.852,0,1.241-.462,1.241-2.447Z" fill="#fff"/>
        <path d="M157.023,63.426v1.451h-.123c-.058-1.292-1.595-1.328-1.595-1.328h-.137v4.085c0,.491,.311,.751,.614,.751v.123h-2.274v-.123c.303,0,.614-.26,.614-.751v-4.085h-.137s-1.53,.036-1.588,1.328h-.123v-1.451h4.749Z" fill="#fff"/>
        <path d="M162.87,66.934v1.573h-4.063v-.123c.303,0,.418-.375,.418-.866v-3.096c0-.448-.101-.874-.418-.874v-.123h3.97v1.371h-.123c-.166-1.249-2.122-1.249-2.122-1.249h-.26v2.332h.26s1.097,0,1.169-.751h.123v1.624h-.123c-.072-.75-1.169-.75-1.169-.75h-.26v2.382h.26s1.913,0,2.216-1.451h.123Z" fill="#fff"/>
        <path d="M168.572,67.98s-.339,.592-1.501,.592c-1.4,0-1.978-.447-1.978-.447v-1.386h.123c.159,.44,.57,1.71,1.855,1.71,.772,0,1.01-1.047,.13-1.689l-1.111-.7c-1.025-.642-1.408-1.364-.809-2.151,0,0,.354-.548,1.494-.548,1.234,0,1.855,.346,1.855,.346v1.213h-.123c-.137-.383-.577-1.437-1.732-1.437-.779,0-1.061,.953-.123,1.566l1.111,.736c.953,.628,1.35,1.408,.809,2.194Z" fill="#fff"/>
      </g>
      <g>
        <g>
          <path d="M101.939,15.506v10.026h-.74c-.228-9.172-9.742-9.285-10.539-9.285h-3.361V50.084c0,3.76,1.766,4.785,4.159,4.785v.741h-13.9v-.741c2.393,0,4.102-1.025,4.102-4.785V16.246h-3.361c-1.766,0-10.254,.114-10.482,9.285h-.741V15.506h34.864Z" fill="#fff"/>
          <path d="M125.239,51.964l.741,.285c-.399,1.766-2.279,3.874-5.298,3.874,0,0-4.842,.171-4.842-5.013v-9.513c-6.551,1.538-9.457,4.045-9.457,7.519,0,1.652,1.026,4.444,4.501,4.444,1.082,0,1.994-.228,2.677-.684,.057,.114,.456,.741,.569,.911-1.538,1.31-3.76,2.336-6.323,2.336,0,0-6.494,.057-6.494-5.867,0-5.697,4.785-6.95,14.526-9.457v-3.304c0-5.355-2.45-8.602-6.437-7.463l-.285-.627c2.051-.684,3.988-.627,3.988-.627,6.209,0,7.861,4.671,7.861,11.393v9.684s0,3.589,2.564,3.589c0,0,1.367,0,1.709-1.481Zm-21.59-15.096c-.569-.854-.684-1.937-.285-2.791,.399-.683,1.083-1.937,3.133-3.304l.342,.627c-.854,.684-.968,1.253-.684,1.31,.684,.114,1.253,.399,1.709,.969,.911,1.196,.627,2.849-.513,3.76-1.196,.854-2.791,.627-3.703-.57Z" fill="#fff"/>
          <path d="M152.434,51.964l.741,.285c-.399,1.766-2.279,3.874-5.298,3.874,0,0-4.842,.171-4.842-5.013v-9.513c-6.551,1.538-9.457,4.045-9.457,7.519,0,1.652,1.026,4.444,4.501,4.444,1.082,0,1.994-.228,2.677-.684,.057,.114,.456,.741,.569,.911-1.538,1.31-3.76,2.336-6.323,2.336,0,0-6.494,.057-6.494-5.867,0-5.697,4.785-6.95,14.526-9.457v-3.304c0-5.355-2.45-8.602-6.437-7.463l-.285-.627c2.051-.684,3.988-.627,3.988-.627,6.209,0,7.861,4.671,7.861,11.393v9.684s0,3.589,2.564,3.589c0,0,1.367,0,1.709-1.481Zm-21.59-15.096c-.569-.854-.684-1.937-.285-2.791,.399-.683,1.083-1.937,3.133-3.304l.342,.627c-.854,.684-.968,1.253-.684,1.31,.684,.114,1.253,.399,1.709,.969,.911,1.196,.627,2.849-.513,3.76-1.196,.854-2.791,.627-3.703-.57Z" fill="#fff"/>
          <path d="M165.628,55.61h-9.57v-.741c2.165-.627,2.279-1.595,2.279-4.5V19.094c0-1.994-.513-2.791-2.849-3.247v-.74l7.862-1.538V50.369c0,3.133,.285,3.988,2.279,4.5v.741Z" fill="#fff"/>
        </g>
        <path d="M53.681,33.336c0-2.532-2.173-4.556-4.756-4.31-2.252,.215-3.905,2.23-3.905,4.491v6.237c0,2.069-1.103,3.169-2.463,3.169h-3.22c-1.36,0-2.463-1.103-2.463-2.463V23.713c0-2.392-1.939-4.33-4.33-4.33h0c-2.392,0-4.33,1.939-4.33,4.33v16.748c0,1.36-1.103,2.463-2.463,2.463h-3.185c-1.36,0-2.463-1.103-2.463-2.463V7.952c0-2.262-1.654-4.281-3.905-4.496-2.583-.246-4.756,1.778-4.756,4.31V40.46c0,1.36-1.103,2.463-2.463,2.463h-3.63c-1.286,0-2.328,1.042-2.328,2.328v14.328c0,2.262,1.654,4.281,3.905,4.496,2.583,.246,4.756-1.778,4.756-4.31v-14.343c0-1.36,1.103-2.463,2.463-2.463h3.22c1.36,0,2.463,1.103,2.463,2.463v24.639c0,2.262,1.654,4.282,3.905,4.496,2.583,.246,4.756-1.778,4.756-4.31v-24.826c0-1.36,1.103-2.463,2.463-2.463h3.323c1.36,0,2.463,1.103,2.463,2.463v14.157c0,2.262,1.654,4.281,3.905,4.496,2.583,.246,4.756-1.778,4.756-4.31v-14.343c0-1.36,1.103-2.463,2.463-2.463h3.492c1.286,0,2.328-1.042,2.328-2.328v-7.295Z" fill="#fff"/>
      </g>
    </g>
  </g>
  <g id="b" data-name="Analizer"/>
  <g id="c" data-name="Layer 3"/>
</svg>